<svg id="visual" viewBox="0 0 900 450" width="900" height="450" xmlns="http://www.w3.org/2000/svg" xmlns:xlink="http://www.w3.org/1999/xlink" version="1.1"><rect x="0" y="0" width="900" height="450" fill="#001220"></rect><path d="M0 206L18.8 201.8C37.7 197.7 75.3 189.3 112.8 181.3C150.3 173.3 187.7 165.7 225.2 171.3C262.7 177 300.3 196 337.8 193.8C375.3 191.7 412.7 168.3 450.2 163.2C487.7 158 525.3 171 562.8 174C600.3 177 637.7 170 675.2 173C712.7 176 750.3 189 787.8 194C825.3 199 862.7 196 881.3 194.5L900 193L900 0L881.3 0C862.7 0 825.3 0 787.8 0C750.3 0 712.7 0 675.2 0C637.7 0 600.3 0 562.8 0C525.3 0 487.7 0 450.2 0C412.7 0 375.3 0 337.8 0C300.3 0 262.7 0 225.2 0C187.7 0 150.3 0 112.8 0C75.3 0 37.7 0 18.8 0L0 0Z" fill="#fa7268"></path><path d="M0 156L18.8 150.3C37.7 144.7 75.3 133.3 112.8 131.8C150.3 130.3 187.7 138.7 225.2 147.7C262.7 156.7 300.3 166.3 337.8 165.2C375.3 164 412.7 152 450.2 141C487.7 130 525.3 120 562.8 121C600.3 122 637.7 134 675.2 137.2C712.7 140.3 750.3 134.7 787.8 136.2C825.3 137.7 862.7 146.3 881.3 150.7L900 155L900 0L881.3 0C862.7 0 825.3 0 787.8 0C750.3 0 712.7 0 675.2 0C637.7 0 600.3 0 562.8 0C525.3 0 487.7 0 450.2 0C412.7 0 375.3 0 337.8 0C300.3 0 262.7 0 225.2 0C187.7 0 150.3 0 112.8 0C75.3 0 37.7 0 18.8 0L0 0Z" fill="#ef5f67"></path><path d="M0 121L18.8 116.5C37.7 112 75.3 103 112.8 104C150.3 105 187.7 116 225.2 123.2C262.7 130.3 300.3 133.7 337.8 135.3C375.3 137 412.7 137 450.2 131.5C487.7 126 525.3 115 562.8 109.3C600.3 103.7 637.7 103.3 675.2 107.3C712.7 111.3 750.3 119.7 787.8 116.5C825.3 113.3 862.7 98.7 881.3 91.3L900 84L900 0L881.3 0C862.7 0 825.3 0 787.8 0C750.3 0 712.7 0 675.2 0C637.7 0 600.3 0 562.8 0C525.3 0 487.7 0 450.2 0C412.7 0 375.3 0 337.8 0C300.3 0 262.7 0 225.2 0C187.7 0 150.3 0 112.8 0C75.3 0 37.7 0 18.8 0L0 0Z" fill="#e34c67"></path><path d="M0 85L18.8 84.2C37.7 83.3 75.3 81.7 112.8 82.5C150.3 83.3 187.7 86.7 225.2 88C262.7 89.3 300.3 88.7 337.8 82C375.3 75.3 412.7 62.7 450.2 65.5C487.7 68.3 525.3 86.7 562.8 92.5C600.3 98.3 637.7 91.7 675.2 91.2C712.7 90.7 750.3 96.3 787.8 97.8C825.3 99.3 862.7 96.7 881.3 95.3L900 94L900 0L881.3 0C862.7 0 825.3 0 787.8 0C750.3 0 712.7 0 675.2 0C637.7 0 600.3 0 562.8 0C525.3 0 487.7 0 450.2 0C412.7 0 375.3 0 337.8 0C300.3 0 262.7 0 225.2 0C187.7 0 150.3 0 112.8 0C75.3 0 37.7 0 18.8 0L0 0Z" fill="#d53867"></path><path d="M0 63L18.8 58C37.7 53 75.3 43 112.8 37.5C150.3 32 187.7 31 225.2 29.8C262.7 28.7 300.3 27.3 337.8 28.2C375.3 29 412.7 32 450.2 34.3C487.7 36.7 525.3 38.3 562.8 39.7C600.3 41 637.7 42 675.2 40.8C712.7 39.7 750.3 36.3 787.8 33.8C825.3 31.3 862.7 29.7 881.3 28.8L900 28L900 0L881.3 0C862.7 0 825.3 0 787.8 0C750.3 0 712.7 0 675.2 0C637.7 0 600.3 0 562.8 0C525.3 0 487.7 0 450.2 0C412.7 0 375.3 0 337.8 0C300.3 0 262.7 0 225.2 0C187.7 0 150.3 0 112.8 0C75.3 0 37.7 0 18.8 0L0 0Z" fill="#c62368"></path></svg>